<?xml version="1.0" encoding="UTF-8"?>
<svg xmlns="http://www.w3.org/2000/svg" viewBox="0 0 900 420">
  <defs>
    <linearGradient id="bg" x1="0" x2="1">
      <stop offset="0%" stop-color="#071227"/>
      <stop offset="100%" stop-color="#0b2140"/>
    </linearGradient>
    <linearGradient id="accent" x1="0" x2="1">
      <stop offset="0%" stop-color="#ffd966"/>
      <stop offset="100%" stop-color="#ffda76"/>
    </linearGradient>
  </defs>

  <rect width="100%" height="100%" fill="url(#bg)" />

  <!-- Left: player kicking ball -->
  <g transform="translate(160,240)">
    <!-- leg kicking -->
    <path d="M0,0 C40, -6 80,-10 120,-22" stroke="#ffd966" stroke-width="6" fill="none" stroke-linecap="round" />
    <circle cx="140" cy="-28" r="18" fill="#0b1220" stroke="#ffd966" stroke-width="4" />
    <circle cx="140" cy="-28" r="10" fill="#ffeaa7" />

    <!-- body -->
    <path d="M24,-6 C12,-36 4,-80 12,-108" stroke="#e6f4ff" stroke-width="8" fill="none" stroke-linecap="round" />
    <!-- arm -->
    <path d="M28,-34 L62,-62" stroke="#ffd966" stroke-width="7" stroke-linecap="round" fill="none" />
    <!-- head -->
    <circle cx="10" cy="-118" r="14" fill="#ffeaa7" stroke="#0b1220" stroke-width="2" />
  </g>

  <!-- Right: person holding phone excited -->
  <g transform="translate(560,190)">
    <path d="M0,0 C-6,40 6,80 18,100" stroke="#e6f4ff" stroke-width="8" fill="none" stroke-linecap="round" />
    <path d="M-8,-20 L32,-64" stroke="#ffd966" stroke-width="7" stroke-linecap="round" />
    <rect x="20" y="-78" width="34" height="56" rx="6" fill="#0b1220" stroke="#ffd966" stroke-width="3" />
    <rect x="26" y="-66" width="22" height="36" rx="3" fill="#ffeaa7" />
    <circle cx="6" cy="-98" r="14" fill="#ffeaa7" stroke="#0b1220" stroke-width="2" />
  </g>

  <!-- center headline -->
  <text x="320" y="70" fill="#ffd966" font-size="30" font-family="Segoe UI, Roboto, Arial" font-weight="800">Bet Big. Celebrate Bigger.</text>
  <text x="320" y="100" fill="#cbd5e1" font-size="14" font-family="Segoe UI, Roboto, Arial">Multiple markets, instant USD stake — BTC payouts. Win and celebrate.</text>

  <!-- Confetti accents -->
  <g>
    <rect x="260" y="40" width="6" height="12" fill="#ffd966" transform="rotate(12 263 46)" opacity="0.95" />
    <rect x="420" y="20" width="6" height="10" fill="#f97316" transform="rotate(-18 423 25)" opacity="0.9" />
    <rect x="520" y="60" width="6" height="12" fill="#60a5fa" transform="rotate(6 523 66)" opacity="0.9" />
  </g>

  <!-- subtle glow box for illustration crop -->
  <rect x="280" y="140" width="340" height="180" rx="12" fill="none" stroke="#12283a" stroke-width="1.5" />
</svg>
